<svg width="70" height="96" viewBox="0 0 70 96" fill="none" xmlns="http://www.w3.org/2000/svg">
<path d="M0 0H60L70 11V96H0V0Z" fill="#FFFF99"/>
<path d="M15.295 53.0504C15.6384 53.0504 15.9678 53.1868 16.2106 53.4297C16.4535 53.6726 16.5899 54.0019 16.5899 54.3454V60.8202C16.5899 61.5071 16.8628 62.1659 17.3485 62.6516C17.8342 63.1373 18.493 63.4101 19.1799 63.4101H50.259C50.9459 63.4101 51.6046 63.1373 52.0903 62.6516C52.5761 62.1659 52.8489 61.5071 52.8489 60.8202V54.3454C52.8489 54.0019 52.9854 53.6726 53.2282 53.4297C53.4711 53.1868 53.8004 53.0504 54.1439 53.0504C54.4873 53.0504 54.8167 53.1868 55.0596 53.4297C55.3024 53.6726 55.4389 54.0019 55.4389 54.3454V60.8202C55.4389 62.194 54.8931 63.5115 53.9217 64.4829C52.9503 65.4543 51.6328 66.0001 50.259 66.0001H19.1799C17.8061 66.0001 16.4886 65.4543 15.5171 64.4829C14.5457 63.5115 14 62.194 14 60.8202V54.3454C14 54.0019 14.1364 53.6726 14.3793 53.4297C14.6221 53.1868 14.9515 53.0504 15.295 53.0504V53.0504Z" fill="#4F4F4F"/>
<path d="M33.8058 58.1111C33.9261 58.2317 34.069 58.3274 34.2263 58.3926C34.3836 58.4579 34.5523 58.4915 34.7226 58.4915C34.893 58.4915 35.0616 58.4579 35.219 58.3926C35.3763 58.3274 35.5192 58.2317 35.6395 58.1111L43.4093 50.3413C43.6524 50.0981 43.789 49.7683 43.789 49.4245C43.789 49.0806 43.6524 48.7508 43.4093 48.5076C43.1661 48.2645 42.8363 48.1279 42.4924 48.1279C42.1485 48.1279 41.8187 48.2645 41.5756 48.5076L36.0176 54.0682V31.295C36.0176 30.9515 35.8812 30.6221 35.6383 30.3793C35.3955 30.1364 35.0661 30 34.7226 30C34.3792 30 34.0498 30.1364 33.807 30.3793C33.5641 30.6221 33.4277 30.9515 33.4277 31.295V54.0682L27.8697 48.5076C27.6265 48.2645 27.2967 48.1279 26.9529 48.1279C26.609 48.1279 26.2792 48.2645 26.036 48.5076C25.7929 48.7508 25.6562 49.0806 25.6562 49.4245C25.6562 49.7683 25.7929 50.0981 26.036 50.3413L33.8058 58.1111V58.1111Z" fill="#4F4F4F"/>
<path d="M60 11V0L70 11H60Z" fill="#4F4F4F"/>
</svg>
